<?xml version="1.0" encoding="UTF-8" standalone="no"?>
<svg
   width="24"
   height="24"
   viewBox="0 0 24 24"
   version="1.1"
   id="svg2"
   sodipodi:docname="bird.svg"
   inkscape:version="1.3.2 (091e20ef0f, 2023-11-25)"
   xmlns:inkscape="http://www.inkscape.org/namespaces/inkscape"
   xmlns:sodipodi="http://sodipodi.sourceforge.net/DTD/sodipodi-0.dtd"
   xmlns="http://www.w3.org/2000/svg"
   xmlns:svg="http://www.w3.org/2000/svg">
  <defs
     id="defs2" />
  <sodipodi:namedview
     id="namedview2"
     pagecolor="#ffffff"
     bordercolor="#000000"
     borderopacity="0.25"
     inkscape:showpageshadow="2"
     inkscape:pageopacity="0.0"
     inkscape:pagecheckerboard="0"
     inkscape:deskcolor="#d1d1d1"
     inkscape:zoom="18.649941"
     inkscape:cx="8.4450668"
     inkscape:cy="16.648846"
     inkscape:window-width="1440"
     inkscape:window-height="891"
     inkscape:window-x="0"
     inkscape:window-y="32"
     inkscape:window-maximized="1"
     inkscape:current-layer="g2" />
  <g
     fill="none"
     stroke="currentColor"
     stroke-linecap="round"
     stroke-linejoin="round"
     stroke-width="1.5"
     color="currentColor"
     id="g2">
    <path
       d="M 17.929384,11.36053 C 17.179384,8.9287165 14.787,7.2132701 12.5,7.2132701 c -4.142,0 -7.8208286,3.7401929 -8,6.7867299 -0.1791714,3.046537 3.6626497,5.590521 7.803662,5.500099 3.112288,-0.06796 4.352044,-1.148939 5.837505,-3.067635"
       id="path1"
       sodipodi:nodetypes="cszsc" />
    <path
       d="m 14.032812,11.785522 h -0.009 M 13.157787,6.8965093 c 0.333654,-1.0856258 0.4716,-1.9372369 -0.139051,-2.7489691 M 11.682464,6.9099526 C 11.76583,6.1467524 11.848239,5.9355112 11.317776,5.2544752 M 2,11 4,14 2,15"
       id="path2"
       sodipodi:nodetypes="ccccccccc" />
    <path
       style="fill:none;fill-opacity:1;stroke:#000000;stroke-width:1.5;stroke-linecap:round;stroke-linejoin:round;stroke-dasharray:none;paint-order:markers stroke fill"
       d="m 12,13.666353 -5.492331,0.05893 c 0,0 2.209143,3.630381 3.888628,3.045899 C 12.075782,16.1867 12,13.666353 12,13.666353 Z"
       id="path3"
       sodipodi:nodetypes="cczc" />
    <path
       style="fill:none;fill-opacity:1;stroke:#000000;stroke-width:1.5;stroke-linecap:round;stroke-linejoin:round;stroke-dasharray:none;paint-order:markers stroke fill"
       d="m 18.141167,16.432464 1.9627,-3.080934 -2.174483,-1.991 c 0,0 -1.580723,0.527555 -1.604507,2.250654 -0.02358,1.70835 1.81629,2.82128 1.81629,2.82128 z"
       id="path4"
       sodipodi:nodetypes="cccsc" />
  </g>
</svg>
