<?xml version="1.0" encoding="UTF-8" standalone="no"?>
<svg
   width="24"
   height="24"
   viewBox="0 0 24 24"
   version="1.1"
   id="svg6309"
   sodipodi:docname="brain.svg"
   inkscape:version="1.2.2 (732a01da63, 2022-12-09)"
   xmlns:inkscape="http://www.inkscape.org/namespaces/inkscape"
   xmlns:sodipodi="http://sodipodi.sourceforge.net/DTD/sodipodi-0.dtd"
   xmlns="http://www.w3.org/2000/svg"
   xmlns:svg="http://www.w3.org/2000/svg">
  <defs
     id="defs6313" />
  <sodipodi:namedview
     id="namedview6311"
     pagecolor="#ffffff"
     bordercolor="#000000"
     borderopacity="0.25"
     inkscape:showpageshadow="2"
     inkscape:pageopacity="0.0"
     inkscape:pagecheckerboard="0"
     inkscape:deskcolor="#d1d1d1"
     showgrid="false"
     inkscape:zoom="32"
     inkscape:cx="11.484375"
     inkscape:cy="15.328125"
     inkscape:window-width="1920"
     inkscape:window-height="991"
     inkscape:window-x="-9"
     inkscape:window-y="-9"
     inkscape:window-maximized="1"
     inkscape:current-layer="svg6309" />
  <path
     fill="none"
     stroke="#000000"
     stroke-linecap="round"
     stroke-linejoin="round"
     stroke-width="1.36041"
     d="m 16.532938,7.5801948 c 0.291429,-0.076787 0.594346,-0.115181 0.908751,-0.115181 2.188532,0.00225 3.876788,1.9272303 3.593489,4.0973462 -0.283298,2.170115 -2.409148,3.597181 -4.524913,3.037526 m 0.02267,-7.0196912 0.0018,-0.115181 c 0.0068,-4.3519264 -6.255919,-5.024915 -7.1738708,-0.7708964 m 7.1720568,0.8860774 c -0.01874,0.5974068 -0.184788,1.1809295 -0.483397,1.6986927 m 0.460724,5.3209985 c 0.01632,-0.108832 0.02449,-0.219781 0.02449,-0.332846 2.2e-4,-1.077597 -0.758049,-2.006476 -1.813874,-2.221995 M 9.3608812,6.6941174 C 6.6160905,5.9147247 4.0874323,8.4628658 4.8878685,11.201594 M 9.3608812,6.6941174 C 10.269971,6.9515566 11.042754,7.553514 11.514856,8.3719507 M 4.8887755,11.201594 c -3.0128819,0.886335 -2.3778087,5.326561 0.7627339,5.332788 1.1535568,6.05e-4 2.1821125,-0.726289 2.5666313,-1.813873 M 4.8887755,11.201594 c 0.082229,0.282359 0.1958983,0.548394 0.3410082,0.798104 M 11.85133,11.767522 C 11.388792,12.212828 10.597036,12.289918 9.9204612,11.909911 9.2438863,11.528998 8.8983434,10.812518 9.0389186,10.185824 m 7.4713324,4.414062 c -0.164959,1.111521 -1.17876,2.278618 -3.413231,1.714379 -2.271972,-0.573709 -2.747843,4.326167 -4.12959,4.566615 -1.3817475,0.240448 -1.799755,-2.099739 -1.99868,-4.66213"
     color="#000000"
     id="path6307"
     sodipodi:nodetypes="ccscccccccccccsccccccccccszc" />
</svg>
