<?xml version="1.0" encoding="UTF-8" standalone="no"?>
<svg
   width="24"
   height="24"
   viewBox="0 0 24 24"
   version="1.1"
   id="svg35280"
   sodipodi:docname="hot-air-balloon PT.svg"
   inkscape:version="1.2.2 (732a01da63, 2022-12-09)"
   xmlns:inkscape="http://www.inkscape.org/namespaces/inkscape"
   xmlns:sodipodi="http://sodipodi.sourceforge.net/DTD/sodipodi-0.dtd"
   xmlns="http://www.w3.org/2000/svg"
   xmlns:svg="http://www.w3.org/2000/svg">
  <defs
     id="defs35284" />
  <sodipodi:namedview
     id="namedview35282"
     pagecolor="#ffffff"
     bordercolor="#000000"
     borderopacity="0.25"
     inkscape:showpageshadow="2"
     inkscape:pageopacity="0.0"
     inkscape:pagecheckerboard="0"
     inkscape:deskcolor="#d1d1d1"
     showgrid="false"
     inkscape:zoom="32"
     inkscape:cx="10.671875"
     inkscape:cy="11.515625"
     inkscape:window-width="1920"
     inkscape:window-height="991"
     inkscape:window-x="-9"
     inkscape:window-y="-9"
     inkscape:window-maximized="1"
     inkscape:current-layer="svg35280" />
  <g
     fill="none"
     stroke="currentColor"
     stroke-linecap="round"
     stroke-linejoin="round"
     stroke-width="1.5"
     color="currentColor"
     id="g35278">
    <path
       d="M 12,18 C 9.539,18 5.7730439,14.379938 5.7730439,9.312938 5.7730439,5.483938 7.582,2 12,2 16.418,2 17.746097,3.9107573 18.668544,7.7580631 12.881295,11.068881 15.628814,16.135402 12,18 Z"
       id="path35274"
       sodipodi:nodetypes="csscc" />
    <path
       d="M15 8.933C15 14 12.923 18 12 18s-3-4-3-9.067C9 5.104 10.343 2 12 2s3 3.104 3 6.933M9 20c0-.465 0-.698.051-.888a1.5 1.5 0 0 1 1.06-1.06C10.303 18 10.536 18 11 18h2c.465 0 .697 0 .888.051a1.5 1.5 0 0 1 1.06 1.06c.052.191.052.424.052.889s0 .698-.051.888a1.5 1.5 0 0 1-1.06 1.06C13.697 22 13.464 22 13 22h-2c-.465 0-.697 0-.888-.051a1.5 1.5 0 0 1-1.06-1.06C9 20.697 9 20.464 9 20"
       id="path35276" />
  </g>
</svg>
