<?xml version="1.0" encoding="UTF-8" standalone="no"?>
<svg
   width="24"
   height="24"
   viewBox="0 0 24 24"
   version="1.1"
   id="svg35280"
   sodipodi:docname="hot-air-balloon PT2.svg"
   inkscape:version="1.2.2 (732a01da63, 2022-12-09)"
   xmlns:inkscape="http://www.inkscape.org/namespaces/inkscape"
   xmlns:sodipodi="http://sodipodi.sourceforge.net/DTD/sodipodi-0.dtd"
   xmlns="http://www.w3.org/2000/svg"
   xmlns:svg="http://www.w3.org/2000/svg">
  <defs
     id="defs35284" />
  <sodipodi:namedview
     id="namedview35282"
     pagecolor="#ffffff"
     bordercolor="#000000"
     borderopacity="0.25"
     inkscape:showpageshadow="2"
     inkscape:pageopacity="0.0"
     inkscape:pagecheckerboard="0"
     inkscape:deskcolor="#d1d1d1"
     showgrid="false"
     inkscape:zoom="22.627417"
     inkscape:cx="6.363961"
     inkscape:cy="8.9493202"
     inkscape:window-width="1920"
     inkscape:window-height="991"
     inkscape:window-x="-9"
     inkscape:window-y="-9"
     inkscape:window-maximized="1"
     inkscape:current-layer="svg35280" />
  <g
     fill="none"
     stroke="currentColor"
     stroke-linecap="round"
     stroke-linejoin="round"
     stroke-width="1.5"
     color="currentColor"
     id="g35278">
    <path
       d="m 12,18 c -2.461,0 -4.3266066,-2.493111 -4.3266066,-7.560111 0,-3.8289996 0.8087346,-9.51368459 4.2824126,-9.50054917 3.458144,0.0130767 4.411265,5.42774247 4.191612,9.49003717 C 15.861725,15.713034 14.253942,18 12,18 Z"
       id="path35274"
       sodipodi:nodetypes="ssass" />
    <path
       d="m 12,18 c -0.923,0 -1.718369,-3.867417 -1.718369,-8.9344175 0,-3.829 0.105563,-7.9936601 1.762563,-7.9936601 1.657,0 1.629981,4.142563 1.674175,8.1814854 C 13.762563,14.53033 12.923,18 12,18 Z m -3,2 c 0,-0.465 0,-0.698 0.051,-0.888 0.1387869,-0.517216 0.5427837,-0.921213 1.06,-1.06 C 10.303,18 10.536,18 11,18 h 2 c 0.465,0 0.697,0 0.888,0.051 0.517216,0.138787 0.921213,0.542784 1.06,1.06 C 15,19.302 15,19.535 15,20 c 0,0.465 0,0.698 -0.051,0.888 -0.138787,0.517216 -0.542784,0.921213 -1.06,1.06 C 13.697,22 13.464,22 13,22 H 11 C 10.535,22 10.303,22 10.112,21.949 9.5947837,21.810213 9.1907869,21.406216 9.052,20.889 9,20.697 9,20.464 9,20"
       id="path35276"
       sodipodi:nodetypes="ssscscccssccsccssccc" />
  </g>
</svg>
