<?xml version="1.0" encoding="UTF-8" standalone="no"?>
<svg
   width="24"
   height="24"
   viewBox="0 0 24 24"
   version="1.1"
   id="svg240"
   sodipodi:docname="owl.svg"
   xml:space="preserve"
   inkscape:version="1.2.2 (732a01da63, 2022-12-09)"
   xmlns:inkscape="http://www.inkscape.org/namespaces/inkscape"
   xmlns:sodipodi="http://sodipodi.sourceforge.net/DTD/sodipodi-0.dtd"
   xmlns="http://www.w3.org/2000/svg"
   xmlns:svg="http://www.w3.org/2000/svg"><defs
     id="defs244" /><sodipodi:namedview
     id="namedview242"
     pagecolor="#ffffff"
     bordercolor="#000000"
     borderopacity="0.25"
     inkscape:showpageshadow="2"
     inkscape:pageopacity="0.0"
     inkscape:pagecheckerboard="0"
     inkscape:deskcolor="#d1d1d1"
     showgrid="false"
     inkscape:zoom="16.75"
     inkscape:cx="2.5074627"
     inkscape:cy="15.014925"
     inkscape:window-width="1920"
     inkscape:window-height="991"
     inkscape:window-x="-9"
     inkscape:window-y="-9"
     inkscape:window-maximized="1"
     inkscape:current-layer="svg240" /><g
     fill="none"
     stroke="black"
     stroke-linecap="round"
     stroke-linejoin="round"
     stroke-width="1.5"
     color="black"
     id="g238"><path
       d="m 11,18 h 2"
       id="path234"
       sodipodi:nodetypes="cc"
       style="display:none" /><path
       d="M21 11c0 5.523-6 11-9 11s-9-5.477-9-11s4.03-9 9-9s9 3.477 9 9"
       id="path236" /></g><g
     fill="none"
     stroke="#000000"
     stroke-linecap="round"
     stroke-linejoin="round"
     stroke-width="1.5"
     color="#000000"
     id="g421"
     transform="matrix(0.88997302,0,0,0.88997302,1.3685269,3.2803107)"><path
       d="M 12,21 C 10.659,21 9.886,20.428 8.34,19.283 0.222,13.275 1.018,6.153 4.537,3.994 7.219,2.349 9.56,3.012 10.966,4.068 c 0.576,0.433 0.931082,6.821577 1.101082,6.821577 0.17,0 0.390918,-6.388577 0.966918,-6.821577 C 14.44,3.012 16.781,2.349 19.463,3.994 21.18,5.048 22.25,7.286 21.949,10"
       id="path417"
       sodipodi:nodetypes="ccccsccc" /></g><g
     fill="none"
     stroke="#000000"
     stroke-linecap="round"
     stroke-linejoin="round"
     stroke-width="1.5"
     color="#000000"
     id="g539"
     transform="matrix(0.85560569,0,0,0.85560569,1.7327312,0.59840333)"><path
       id="circle535"
       sodipodi:type="arc"
       sodipodi:cx="11.994617"
       sodipodi:cy="12.418661"
       sodipodi:rx="10.558215"
       sodipodi:ry="6.5809331"
       sodipodi:start="0"
       sodipodi:end="3.0964289"
       sodipodi:arc-type="arc"
       d="M 22.552833,12.418661 A 10.558215,6.5809331 0 0 1 12.233022,18.997916 10.558215,6.5809331 0 0 1 1.4471686,12.71578"
       sodipodi:open="true" /><path
       d="M 8.009,11.337525 H 8 m 8,0 h -0.009"
       id="path537"
       sodipodi:nodetypes="cccc" /></g></svg>
