<?xml version="1.0" encoding="UTF-8" standalone="no"?>
<svg
   width="24px"
   height="24px"
   viewBox="0 0 24 24"
   version="1.1"
   id="svg1"
   sodipodi:docname="politician.svg"
   inkscape:version="1.3.2 (091e20ef0f, 2023-11-25, custom)"
   xmlns:inkscape="http://www.inkscape.org/namespaces/inkscape"
   xmlns:sodipodi="http://sodipodi.sourceforge.net/DTD/sodipodi-0.dtd"
   xmlns="http://www.w3.org/2000/svg"
   xmlns:svg="http://www.w3.org/2000/svg">
  <defs
     id="defs1" />
  <sodipodi:namedview
     id="namedview1"
     pagecolor="#505050"
     bordercolor="#ffffff"
     borderopacity="1"
     inkscape:showpageshadow="0"
     inkscape:pageopacity="0"
     inkscape:pagecheckerboard="1"
     inkscape:deskcolor="#d1d1d1"
     inkscape:zoom="35.333333"
     inkscape:cx="13.273585"
     inkscape:cy="16.358491"
     inkscape:window-width="1920"
     inkscape:window-height="1052"
     inkscape:window-x="0"
     inkscape:window-y="0"
     inkscape:window-maximized="1"
     inkscape:current-layer="svg1" />
  <path
     fill="none"
     stroke="currentColor"
     stroke-linecap="round"
     stroke-linejoin="round"
     stroke-width="1.5"
     d="M15 5c0 1.657-1.758 3.5-3 3.5S9 6.657 9 5a3 3 0 1 1 6 0m1.042 4c1.522 1.335 2.51 3.597 1.623 5.705c-.19.454-.629.749-1.114.749c-.492 0-1.302-.158-1.46.483l-1.097 4.475A2.064 2.064 0 0 1 12 22a2.064 2.064 0 0 1-1.994-1.588l-1.098-4.475c-.157-.641-.967-.483-1.46-.483c-.484 0-.922-.295-1.113-.749c-.886-2.108.1-4.37 1.624-5.705"
     color="currentColor"
     id="path1" />
  <path
     style="fill:none;fill-rule:evenodd;stroke:#010100;stroke-width:1.5;stroke-linecap:round;stroke-linejoin:round"
     d="M 10.3,13.7 12.000165,15.632462 13.7,13.7 12,10.5 Z"
     id="path2"
     sodipodi:nodetypes="ccccc" />
</svg>
