<?xml version="1.0" encoding="UTF-8" standalone="no"?>
<svg
   width="24"
   height="24"
   viewBox="0 0 24 24"
   version="1.1"
   id="svg1082"
   sodipodi:docname="pupitre.svg"
   inkscape:version="1.2.2 (732a01da63, 2022-12-09)"
   xmlns:inkscape="http://www.inkscape.org/namespaces/inkscape"
   xmlns:sodipodi="http://sodipodi.sourceforge.net/DTD/sodipodi-0.dtd"
   xmlns="http://www.w3.org/2000/svg"
   xmlns:svg="http://www.w3.org/2000/svg">
  <defs
     id="defs1086" />
  <sodipodi:namedview
     id="namedview1084"
     pagecolor="#ffffff"
     bordercolor="#000000"
     borderopacity="0.25"
     inkscape:showpageshadow="2"
     inkscape:pageopacity="0.0"
     inkscape:pagecheckerboard="0"
     inkscape:deskcolor="#d1d1d1"
     showgrid="false"
     inkscape:zoom="16.145833"
     inkscape:cx="2.1677419"
     inkscape:cy="8.7019355"
     inkscape:window-width="1920"
     inkscape:window-height="991"
     inkscape:window-x="-9"
     inkscape:window-y="-9"
     inkscape:window-maximized="1"
     inkscape:current-layer="svg1082" />
  <path
     fill="none"
     stroke="#000000"
     stroke-linecap="round"
     stroke-linejoin="round"
     stroke-width="1.5"
     d="m 2,5.3 h 7 m 6,0 h 7 m 0,4.4 h -5.56 c -1.13,0 -1.694,0 -1.994,-0.403 -0.3,-0.402 -0.189,-1.011 0.032,-2.228 L 14.522,6.831 C 14.742,5.614 14.854,5.005 14.553,4.603 14.253,4.2 13.689,4.2 12.56,4.2 h -1.12 c -1.13,0 -1.693,0 -1.994,0.403 -0.3,0.402 -0.189,1.011 0.032,2.228 L 9.522,7.069 C 9.742,8.286 9.854,8.895 9.554,9.297 9.254,9.699 8.689,9.7 7.56,9.7 H 2 M 13.5,4.2 c 0,-0.55 0.2,-1.76 1,-2.2 m -4,2.2 C 10.5,3.65 10.3,2.44 9.5,2 M 3,5.3 V 22 M 21,5.3 V 22 M 18,9.7 V 22 m -3,0 V 9.7 H 9 V 22 M 6,9.7 V 22 m -4,0 h 20"
     color="#000000"
     id="path1080"
     sodipodi:nodetypes="cccccsccccsscccssccccccccccccccccccc"
     style="display:none" />
  <g
     inkscape:groupmode="layer"
     id="layer1"
     inkscape:label="Layer 1">
    <rect
       style="fill:none;stroke:#000000;stroke-width:1.5;stroke-linecap:round;stroke-linejoin:round;stroke-dasharray:none;stroke-opacity:1"
       id="rect1758"
       width="20.005161"
       height="4.4593554"
       x="1.9974194"
       y="5.2645159" />
    <rect
       style="fill:none;stroke:#000000;stroke-width:1.5;stroke-linecap:round;stroke-linejoin:round;stroke-dasharray:none;fill-opacity:1;stroke-opacity:1"
       id="rect4141"
       width="12.046452"
       height="12.170322"
       x="5.9767742"
       y="9.8167744" />
  </g>
  <path
     d="m 9.0000637,4.3682019 c 0,-0.55 0.2,-1.76 1.0000003,-2.2 m 4.999872,2.1781025 c 0,-0.55 -0.2,-1.76 -1,-2.2"
     style="color:#000000;fill:none;stroke:#000000;stroke-width:1.5;stroke-linecap:round;stroke-linejoin:round"
     id="path4161"
     sodipodi:nodetypes="cccc" />
</svg>
