<?xml version="1.0" encoding="UTF-8" standalone="no"?>
<svg
   width="24"
   height="24"
   viewBox="0 0 24 24"
   version="1.1"
   id="svg4725"
   sodipodi:docname="swords.svg"
   inkscape:version="1.2.2 (732a01da63, 2022-12-09)"
   xmlns:inkscape="http://www.inkscape.org/namespaces/inkscape"
   xmlns:sodipodi="http://sodipodi.sourceforge.net/DTD/sodipodi-0.dtd"
   xmlns="http://www.w3.org/2000/svg"
   xmlns:svg="http://www.w3.org/2000/svg">
  <defs
     id="defs4729" />
  <sodipodi:namedview
     id="namedview4727"
     pagecolor="#ffffff"
     bordercolor="#000000"
     borderopacity="0.25"
     inkscape:showpageshadow="2"
     inkscape:pageopacity="0.0"
     inkscape:pagecheckerboard="0"
     inkscape:deskcolor="#d1d1d1"
     showgrid="true"
     inkscape:zoom="22.833656"
     inkscape:cx="5.8466326"
     inkscape:cy="12.853833"
     inkscape:window-width="1920"
     inkscape:window-height="991"
     inkscape:window-x="-9"
     inkscape:window-y="-9"
     inkscape:window-maximized="1"
     inkscape:current-layer="svg4725">
    <inkscape:grid
       type="xygrid"
       id="grid5211" />
  </sodipodi:namedview>
  <path
     d="m 5.007,19.499 c 0,2.003999 -3.006,2.003999 -3.006,0 0,-2.003999 3.006,-2.003999 3.006,0"
     id="path12758"
     style="fill:none;fill-opacity:1;stroke:#000000;stroke-opacity:1;stroke-linecap:round;stroke-width:1.5;stroke-dasharray:none;stroke-linejoin:round" />
  <path
     d="m 4.562,12.987 c 0.273,0.022 1.032,0.204 1.712,1.054 0.625,0.78 2.31,2.29 3.017,3.004 0.4,0.404 0.68,1.044 0.68,1.348"
     id="path12754"
     style="fill:none;fill-opacity:1;stroke:#000000;stroke-opacity:1;stroke-linecap:round;stroke-width:1.5;stroke-dasharray:none;stroke-linejoin:round" />
  <path
     d="M 4.596,18.393 7.554,15.501"
     id="path12752"
     style="fill:none;fill-opacity:1;stroke:#000000;stroke-opacity:1;stroke-linecap:round;stroke-width:1.5;stroke-dasharray:none;stroke-linejoin:round" />
  <path
     d="m 20.462,17.981 c 0.83,0.002 1.54,0.615 1.538,1.445 -0.001,0.83 -0.707,1.557 -1.538,1.556 -0.83,-0.002 -1.47,-0.732 -1.469,-1.562 0.054,-0.826 0.665,-1.328 1.47,-1.439"
     id="path12750"
     style="fill:none;fill-opacity:1;stroke:#000000;stroke-opacity:1;stroke-linecap:round;stroke-width:1.5;stroke-dasharray:none;stroke-linejoin:round" />
  <path
     d="M 15.172,15.751 C 12.109122,12.887653 8.8848311,10.212074 5.678,7.514 4.155,6.204 4.15,4.302 3.988,3.02 5.654,3.1 6.944,3.25 8.068,4.2 l 1.176,1.336 c 2.654327,2.8299892 5.150942,5.796288 7.662,8.752"
     id="path12748"
     style="fill:#ffffff;fill-opacity:1;stroke:#000000;stroke-opacity:1;stroke-linecap:round;stroke-width:1.5;stroke-dasharray:none;stroke-linejoin:round" />
  <path
     d="m 14.023,18.419 c 0.022,-0.272 0.2,-0.978 1.019,-1.734 0.734,-0.679 2.327,-2.305 3.042,-3.01 0.406,-0.4 1.07,-0.68 1.374,-0.679"
     id="path12746"
     style="fill:none;fill-opacity:1;stroke:#000000;stroke-opacity:1;stroke-linecap:round;stroke-width:1.5;stroke-dasharray:none;stroke-linejoin:round" />
  <path
     d="m 19.458,18.419 -2.964,-3"
     id="path4723"
     style="fill:none;fill-opacity:1;stroke:#000000;stroke-opacity:1;stroke-linecap:round;stroke-width:1.5;stroke-dasharray:none;stroke-linejoin:round" />
  <path
     d="m 7.266,14.23 8.239,-9.566 c 1.34,-1.496 3.214,-1.528 4.5,-1.666 -0.112,1.664 -0.288,2.95 -1.26,4.055 L 8.55,15.927"
     id="path12756"
     style="fill:#ffffff;fill-opacity:1;stroke:#000000;stroke-opacity:1;stroke-linecap:round;stroke-width:1.5;stroke-dasharray:none;stroke-linejoin:round" />
</svg>
